<?xml version="1.0" standalone="no"?>
<!DOCTYPE svg PUBLIC "-//W3C//DTD SVG 20010904//EN"
 "http://www.w3.org/TR/2001/REC-SVG-20010904/DTD/svg10.dtd">
<svg version="1.0" xmlns="http://www.w3.org/2000/svg"
 width="857.000000pt" height="1200.000000pt" viewBox="0 0 857.000000 1200.000000"
 preserveAspectRatio="xMidYMid meet">

<g transform="translate(0.000000,1200.000000) scale(0.100000,-0.100000)"
fill="#000000" stroke="none">
<path d="M0 6000 l0 -6000 4285 0 4285 0 0 6000 0 6000 -4285 0 -4285 0 0
-6000z m4676 3900 c917 -72 1606 -390 2076 -957 214 -258 412 -632 514 -971
14 -48 30 -91 35 -96 7 -8 150 4 247 21 23 4 32 1 32 -8 0 -19 -98 -220 -151
-310 l-42 -73 21 -136 c46 -282 72 -587 72 -832 l0 -158 75 0 75 0 0 -49 c0
-46 2 -50 29 -56 54 -12 103 -90 127 -204 16 -75 19 -284 5 -357 -24 -124 -79
-220 -129 -226 -25 -3 -27 -7 -32 -55 l-5 -52 -89 2 -88 2 -44 -119 c-225
-602 -505 -1055 -891 -1440 -454 -453 -1027 -736 -1688 -831 -764 -110 -1540
3 -2115 307 -544 288 -968 737 -1263 1339 -108 219 -163 362 -271 704 l-13 40
-106 -3 -106 -4 -3 52 c-3 50 -5 53 -38 64 -43 14 -74 59 -103 150 -19 61 -22
93 -22 236 0 175 8 225 51 312 24 47 69 88 98 88 13 0 16 11 16 50 l0 50 63 0
64 0 7 178 c8 205 27 405 57 614 l22 146 -70 109 c-77 120 -163 274 -163 293
0 13 43 12 256 -6 l72 -7 32 99 c106 321 245 613 403 849 141 210 347 438 535
593 252 207 554 375 872 483 219 75 517 139 765 163 169 17 632 20 811 6z"/>
<path d="M3830 9764 c-80 -7 -183 -19 -230 -26 -79 -12 -85 -15 -88 -38 -1
-14 -5 -44 -8 -67 l-5 -42 -57 -12 c-295 -60 -654 -210 -908 -378 l-119 -78
-87 -8 -87 -7 -65 -66 c-261 -269 -518 -677 -674 -1072 -54 -136 -96 -259 -91
-264 2 -2 35 -6 72 -8 56 -3 67 -1 62 10 -4 12 0 11 19 -2 14 -9 37 -16 52
-16 22 0 25 2 14 15 -18 21 3 19 32 -4 30 -24 99 -25 91 -2 -5 13 -3 13 8 -1
15 -18 119 -31 359 -43 63 -4 123 -9 133 -11 9 -3 17 -1 17 5 0 6 -5 11 -12
11 -6 0 -8 3 -5 7 4 3 15 -1 24 -9 23 -20 163 -32 163 -15 0 9 3 8 8 -1 5 -8
27 -12 59 -11 27 1 55 -1 61 -5 7 -4 12 -1 12 9 0 15 1 15 16 1 20 -21 58 -22
51 -2 -4 10 -1 13 9 9 7 -3 14 -10 14 -15 0 -6 7 -5 16 3 12 10 17 10 23 0 10
-16 27 3 36 42 4 15 11 27 16 27 10 0 0 -60 -14 -77 -7 -9 -5 -13 7 -13 9 0
16 6 16 13 0 8 3 9 8 1 9 -13 52 -25 52 -14 0 5 -6 10 -12 13 -7 2 -10 7 -6
11 3 4 18 0 33 -10 27 -18 28 -18 21 4 -9 28 0 28 40 -3 45 -35 74 -31 42 5
-7 7 4 3 24 -9 37 -22 55 -17 37 9 -13 23 -11 34 5 21 11 -10 17 -8 26 6 10
16 10 16 5 -3 -6 -25 3 -54 17 -54 7 0 8 15 5 38 -6 34 -5 35 8 18 11 -15 15
-16 16 -5 1 8 5 -2 8 -21 l7 -35 23 43 c26 52 39 50 17 -2 -19 -46 -7 -46 35
1 17 21 37 38 43 39 6 1 36 18 66 38 30 20 59 36 63 36 5 0 7 9 4 21 -4 16 -3
18 8 9 10 -8 31 -3 87 23 40 19 84 38 96 42 17 5 22 12 19 26 -5 20 7 26 18 9
3 -5 12 -7 20 -4 12 5 10 10 -8 25 -27 22 -10 25 21 3 17 -12 26 -13 36 -4 8
6 16 7 18 3 3 -4 4 -3 2 3 -1 6 7 19 18 29 20 17 21 17 15 -4 -3 -15 -1 -21 6
-18 7 2 11 11 9 21 -2 9 4 16 12 16 8 0 17 6 20 13 3 6 4 3 3 -7 -1 -10 4 -21
11 -23 17 -6 15 18 -4 45 -17 25 -15 27 20 10 14 -6 28 -19 31 -29 4 -12 12
-16 23 -12 25 9 49 37 44 51 -2 6 1 12 6 12 6 0 14 -9 17 -20 3 -11 11 -20 17
-20 6 0 5 7 -3 17 -12 15 -12 16 3 11 10 -4 19 -1 22 8 5 14 8 14 22 0 25 -25
45 -20 38 8 -10 43 6 50 32 14 l25 -33 -3 30 c-2 37 8 56 27 49 9 -4 12 -17 9
-42 l-5 -37 23 28 c28 32 42 35 33 6 -5 -15 -4 -19 5 -14 7 4 9 17 5 33 -5 21
-4 23 8 14 10 -9 16 -9 25 0 8 8 9 5 5 -13 -6 -24 -6 -24 15 -6 20 18 21 18
37 -7 20 -30 35 -34 35 -8 1 16 1 16 14 0 8 -12 27 -18 51 -18 35 0 37 2 31
26 -6 21 -4 25 11 22 10 -2 24 -16 31 -31 17 -35 32 -35 33 1 l1 27 11 -27
c10 -26 52 -44 63 -26 3 5 11 4 19 -2 10 -8 18 -4 35 17 12 15 19 21 17 11 -8
-24 4 -30 25 -11 20 18 23 11 8 -17 -7 -13 -6 -19 4 -23 8 -3 17 1 20 9 3 8
13 14 23 14 15 0 15 -1 -1 -13 -16 -12 -17 -15 -3 -20 8 -3 24 3 35 14 14 12
23 15 28 8 4 -8 9 -7 15 2 7 11 9 10 9 -3 0 -21 16 -24 23 -5 4 9 6 9 6 0 1
-6 -3 -15 -9 -18 -16 -10 -12 -22 10 -28 13 -3 25 2 36 16 15 22 15 22 8 -5
-5 -24 -3 -28 15 -28 15 0 19 5 15 18 -5 14 -4 14 4 2 9 -12 14 -12 31 4 17
16 21 16 21 4 0 -8 -10 -20 -22 -27 l-23 -11 24 6 c15 4 21 2 17 -4 -4 -7 4
-10 23 -7 20 2 28 0 25 -9 -4 -11 55 -40 81 -41 6 0 15 -7 21 -15 10 -12 14
-12 28 -1 14 11 16 11 16 -2 0 -9 18 -25 43 -36 39 -18 42 -18 48 -3 5 13 10
9 23 -18 9 -19 13 -25 10 -12 -8 31 11 27 25 -6 16 -39 48 -57 69 -40 13 11
15 11 9 -4 -4 -12 1 -25 15 -38 28 -26 42 -26 35 1 -3 13 -1 19 6 16 7 -3 23
5 36 17 l24 21 -17 -33 c-21 -41 -16 -48 23 -32 26 10 29 15 20 32 -6 11 -8
22 -5 25 3 3 8 -2 12 -11 3 -9 12 -16 19 -16 8 0 11 -8 8 -20 -3 -12 0 -20 7
-20 9 0 10 10 6 35 -8 42 -2 45 18 8 l15 -28 13 33 c12 31 31 45 27 20 -4 -30
2 -58 11 -58 6 0 20 16 32 35 25 43 37 39 15 -4 -16 -31 -9 -42 11 -18 6 7 33
28 59 47 l48 33 -34 -36 c-19 -20 -32 -39 -29 -42 3 -3 25 6 49 20 47 26 71
33 51 13 -16 -16 -15 -28 3 -28 8 0 15 3 15 8 0 4 19 7 43 8 23 1 65 4 92 6
140 15 184 21 225 28 24 5 47 7 51 5 3 -2 48 2 100 10 52 7 127 16 167 20 56
6 72 10 72 23 0 12 3 13 12 4 17 -17 26 -15 31 6 4 16 5 16 6 0 0 -10 8 -18
16 -18 8 0 15 8 15 18 0 14 2 15 10 2 8 -12 13 -13 29 -3 11 7 21 9 23 4 2 -5
35 -5 73 0 249 29 350 41 352 43 5 5 -65 203 -111 316 -151 366 -394 732 -612
921 -44 38 -48 39 -120 39 -71 0 -78 2 -127 38 -75 55 -190 124 -283 170 -123
62 -276 123 -291 117 -8 -2 -12 -1 -9 4 10 15 -298 102 -491 138 l-93 17 0 47
c0 26 -6 51 -13 57 -15 13 -194 37 -381 52 -175 14 -609 11 -786 -6z m-1970
-2076 c0 -17 -15 -7 -27 18 -12 26 -12 26 7 9 11 -10 20 -22 20 -27z m1380 8
c0 -3 -4 -8 -10 -11 -5 -3 -10 -1 -10 4 0 6 5 11 10 11 6 0 10 -2 10 -4z"/>
<path d="M4216 8025 c-3 -9 0 -15 9 -15 9 0 12 6 9 15 -4 8 -7 15 -9 15 -2 0
-5 -7 -9 -15z"/>
<path d="M4026 8007 c3 -10 9 -15 12 -12 3 3 0 11 -7 18 -10 9 -11 8 -5 -6z"/>
<path d="M7220 7258 c-80 -104 -252 -276 -348 -347 -280 -205 -594 -292 -1064
-295 -115 0 -208 -3 -208 -6 0 -3 7 -15 15 -27 12 -17 22 -20 57 -16 133 15
223 -79 303 -320 l30 -87 670 2 670 3 3 210 c2 116 -2 284 -8 375 -10 160 -44
482 -58 548 l-7 32 -55 -72z"/>
<path d="M4801 7214 c-55 -20 -86 -39 -129 -78 -90 -83 -114 -221 -58 -324 64
-115 221 -181 369 -153 313 58 375 402 97 539 -46 22 -71 27 -145 29 -63 2
-103 -2 -134 -13z m-13 -166 c7 -7 12 -26 12 -43 0 -38 -16 -55 -51 -55 -52 0
-77 54 -42 92 18 20 63 24 81 6z m80 -95 c5 -17 -26 -29 -40 -15 -6 6 -7 15
-3 22 9 14 37 9 43 -7z"/>
<path d="M3573 7175 c-170 -52 -263 -205 -219 -356 21 -74 72 -131 154 -171
62 -31 74 -33 167 -33 88 0 107 4 160 28 109 51 185 154 185 251 0 120 -93
235 -224 279 -59 20 -164 21 -223 2z m-23 -175 c11 -11 20 -27 20 -35 0 -20
-45 -65 -65 -65 -21 0 -55 36 -55 60 0 26 34 60 60 60 11 0 29 -9 40 -20z m77
-86 c9 -23 -13 -40 -32 -24 -12 10 -13 16 -4 26 15 18 28 18 36 -2z"/>
<path d="M1270 7151 c0 -3 -9 -69 -20 -146 -26 -184 -45 -577 -36 -728 l8
-117 746 2 745 3 53 99 c28 54 68 115 88 135 35 34 39 36 105 36 l69 0 52 68
c29 38 50 70 48 72 -1 2 -34 -3 -73 -10 -92 -18 -303 -35 -418 -35 -99 0 -335
22 -432 41 -304 56 -527 181 -787 441 -82 80 -148 143 -148 139z"/>
</g>
</svg>
