<?xml version="1.0" encoding="utf-8"?>
<!-- Generator: Adobe Illustrator 23.1.0, SVG Export Plug-In . SVG Version: 6.00 Build 0)  -->
<svg version="1.1" id="Слой_1" xmlns="http://www.w3.org/2000/svg" xmlns:xlink="http://www.w3.org/1999/xlink" x="0px" y="0px"
	 viewBox="0 0 720 427.58" style="enable-background:new 0 0 720 427.58;" xml:space="preserve">
<path d="M273.67,314.2c11.26-9.01,13.96-24.59,14.82-37.04c0.97-14.16-6.92-47.88-9.88-61.66c-2.73-12.72-4.7-26.83-6.51-39.73
	c0.05-0.07,0.11-0.14,0.16-0.21c16.69-21.7,28.67-47.87,21.72-58.64c-7.08-10.97-22.53-4.58-29.19,1.72
	c-4.75,4.48-8.7,10.93-10.74,18.52c-3.27,12.18-1.85,21.85-0.28,37.08c0.25,2.41,0.86,6.95,1.1,9.36
	c-5.24,6.52-10.6,13.06-16.7,18.81c-3.26,3.07-7.31,6.98-11.89,7.8c-6.22,1.11-7.67-6.36-7.18-11.04
	c2.41-23.27,9.13-46.09,19.7-66.96c0.72-1.42,1.47-2.9,1.44-4.49c-0.14-7.33-13.52-1.68-15.96,1.33
	c-3.37,4.17-5.24,10.15-7.09,15.14c-2.75,7.4-4.69,15.07-6.74,22.68c-3.06,11.31-4.55,20.84-4.52,28.63
	c-0.18,0.3-0.34,0.62-0.45,0.98c-0.17,0.57-0.35,1.14-0.52,1.71c-3.56,11.54-9.86,30.55-15.08,41.47
	c-3.06,6.39-7.51,15.38-11.27,19.79c-2.68,3.15-8.79,8.82-12.98,5.17c-4-3.49,0.19-14.28,1.49-18.49
	c2.01-6.53,10.67-26.72,13.6-33.98c6.39-15.83,11.11-23.33,14.17-37.22c1.52-6.9,2.93-21.12-2.78-26.94
	c-4.77-4.87-15.58-4.27-21.19-1.25c-12,6.47-20.29,19.96-27.08,31.25c-3.76,6.25-7.15,12.56-9.98,18.16
	c3.03-17.02,7.68-33.71,13.88-49.82c15.07-1.21,27.72-7.37,37.84-18.5c9.46-10.4,16.91-24.2,18.21-38.38
	c1.1-12.04-4.68-24.93-19.16-21.68c-12.88,2.89-31.64,18.57-45.69,53.91c-2.03,5.11-4.05,10.4-5.98,15.78
	c-7.43-0.95-15.48-3.04-24.14-6.22c1.2-2.93,2.44-5.84,3.75-8.71c2.42-5.32,5.51-10.31,7.9-15.64c0.75-1.68,3.22-5.82,2.41-7.66
	c-1.92-4.36-14.57-2.57-17.35-0.13c-3.35,2.93-5.98,8.76-7.66,12.79c-1.39,3.33-3.54,8.26-5.28,12.67
	c-38.67-16.12-55.96-13.48-70.3-9.3C12.71,118.04,4,127.5,1.07,138.27c-2.92,10.77,0.17,21.69,8.72,30.74
	c1.44,1.52,2.89,2.87,4.36,4.07c-0.42,1.67-0.75,3.36-0.98,5.05c-1.39,10.27,1.12,19.63,7.09,26.34c12.38,13.93,29.2,9.9,36.27,5.61
	c1.64-0.99,3.33-3.47,2.64-5.97c-1.02-3.68-5.17-4.37-7.64-3.06c-2.08,1.11-14.02,9.86-24.84-2.31c-4.27-4.8-6.04-11.72-4.99-19.46
	c0.05-0.4,0.11-0.79,0.18-1.19c9.08,4.5,17.7,4.33,22.94,3.56c11-1.63,20.71-7.87,24.73-15.9c3.85-7.71,2.09-16.79-4.39-22.59
	c-6.05-5.42-17-8.31-29.57-0.17c-7.89,5.11-14.32,12.72-18.32,21.33c-0.41-0.39-0.81-0.8-1.21-1.23c-8.22-8.7-8.16-17.08-6.67-22.57
	c2.4-8.85,9.68-15.37,15.3-17.01c10.19-2.97,25.4-7.37,64.92,9.14c-1.09,3.26-2.08,6.56-2.98,9.88c-2.26,8.37-3.99,16.88-5.49,25.42
	c-1.7,9.69-3.34,19.59-2.55,29.46c0.3,3.74,0.94,7.53,2.39,11c1.55,3.73,3.93,6.06,7.3,8.12c0.75,0.46,1.74,0.88,2.6,1.07
	c1.85,0.4,3.8,0.71,5.7,0.71c8.21,0,16.66-6.47,22.93-13.57c0.52,4.16,1.7,10.63,5.17,13.5c6.52,5.39,10.24-4.51,12.27-8.81
	c4.05-8.59,8.61-16.93,13.33-25.16c2.72-4.75,15.64-30.71,23.89-27.43c6.94,2.76,2.65,17.25-0.96,27.53
	c-3.79,10.77-8.77,19.93-12.78,30c-2.1,5.28-9.14,23.22-10.39,28.77c-1.67,7.39-3.16,17.64,0.26,24.69c2,4.13,5.87,7.49,10.41,8.2
	c9.21,1.46,18.89-4.72,25.01-12.79c8.77-11.56,18.84-38.05,23.77-51.56c-0.51,1.4,4.52,5.27,5.5,5.91
	c15.13,9.91,33.16-12.38,41.43-22.25c3.23,20.23,13.77,59.5,13.8,80.11c0.01,7.42-0.28,15.6-4.32,22.07
	c-2.78,4.44-8.89,10.56-15.93,12.78c-9.78,3.09-21.6-0.82-28.49-8.18c-7.69-8.22-8.38-24.5,1.64-31.11c3.98-2.63,11.39-4.38,15-1.26
	c3.22,2.78,8.82,4.53,13.27-0.4c3.62-4.01,1.26-9.8-2.16-13.31c-3.15-3.23-9.59-4.34-13.87-4.07c-10.53,0.67-21.05,7.07-26.5,16.11
	c-8.56,14.2-7.96,32.04,2.96,42.96c5.1,5.1,12.1,11.43,23.52,13.33C246.45,326.24,262.56,323.09,273.67,314.2z M167.43,105.65
	c5.09-8.57,10.48-19.23,18.66-25.27c1.26-0.93,2.65-1.78,4.2-1.98c8.15-1.06,4.58,13.75,3.49,17.69c-2.66,9.62-7.9,18.59-14.6,25.95
	c-7.63,8.39-16.87,13.46-27.8,15.26C156.04,126.42,161.38,115.84,167.43,105.65z M40.26,150.22c8.5-5.5,15.47-3.94,19.15-0.64
	c3.61,3.23,4.56,8.07,2.44,12.32c-2.76,5.51-10.1,10.03-18.28,11.23c-4.33,0.64-11.62,0.73-19.21-3.49
	C27.62,161.81,33.32,154.72,40.26,150.22z M121.89,175.02c-1.61,7.67-2.56,16.64-7.66,23.01c-3.29,4.11-7.31,8.13-12.26,10.16
	c-2.08,0.85-3.78,0.87-5.16,0.31c-1.85-0.75-3.09-2.47-3.75-4.3c-0.82-2.28-0.63-4.17-0.52-6.56c0.17-3.7,0.47-7.41,0.99-11.08
	c1.06-7.46,2.48-14.82,4.34-22.12c2.17-8.52,4.79-16.93,7.83-25.18c8.62,3.15,16.76,5.3,24.4,6.41
	C126.87,155.31,123.98,165.08,121.89,175.02z M269.87,151.88c-0.06-4.05-0.06-4.91,0.48-8.47c0.67-4.4,2.11-11.21,5.2-16.16
	c1.76-2.82,8.27-9.18,11.5-4.32c1.48,2.22-0.5,7.49-1.17,9.71c-3.41,11.36-8.5,20.65-15.19,30.36
	C270.14,156.7,269.9,153.88,269.87,151.88z"/>
<path d="M336.11,168.13c2.17-3.26,5.07-7.76,4.47-11.9c-1.07-7.34-9.45-6.13-13.46-1.87c-0.82,0.87-5.23,5.52-4.82,6.89
	c0-0.01-4.08-12-11.67-9.36c-8.22,2.85-4.22,20.89,10.22,33.61C326.47,180.27,331.86,174.51,336.11,168.13z"/>
<path d="M472.82,170.3c2.57-2.96,6.02-7.05,5.95-11.24c-0.12-7.41-8.59-7.29-13.11-3.58c-0.92,0.76-5.89,4.81-5.66,6.22
	c0-0.01-2.51-12.42-10.38-10.78c-8.52,1.78-6.85,20.18,5.84,34.64C461.71,181.11,467.79,176.09,472.82,170.3z"/>
<path d="M441.92,112.8c-4.32-3.08-10.8-2.11-15.57-0.74c-10.9,3.13-19.3,14.45-22.26,24.94c-1.46,5.18-2.16,9.88-1.57,15.17
	c0.41,3.65,1.24,7.16,1.94,10.74c0.28,1.44,1.57,6.3,2.36,10.09c-2.71,3.48-5.48,6.91-8.33,10.27
	c-5.43,6.41-11.08,12.83-17.55,18.21c-2.33,1.94-4.93,4.02-7.87,4.95c-5.72,1.81-5.15-4.48-4.69-8.27
	c0.67-5.57,1.55-11.11,2.59-16.62c2.1-11.22,4.9-22.3,8.37-33.17c1.66-5.2,3.72-10.57,5.69-15.78c1.01-2.67,2.26-5.23,3.25-7.9
	c0.8-2.15,3.53-7.15,1.15-9.11c-2.42-2.01-9.04,0.53-11.55,1.35c-1.18,0.38-2.35,0.83-3.34,1.56c-4.46,3.31-6.18,10.8-7.77,15.72
	c-3.52,10.93-6.61,21.97-9.02,33.17c-4.31,20.01-7.32,43.64,7.8,48.87c6.68,2.31,17.69-0.11,43.84-32.6
	c0.43,2.14,0.71,2.58,1.2,4.86c1.18,5.52,2.52,11,3.62,16.55c1.44,7.24,2.89,14.49,4.34,21.73c1.31,6.54,2.85,13.16,1.74,19.83
	c-0.67,4.04-2.71,7.56-7.53,9.41c-4.06,1.56-9.84,0.69-13.35-1.91c-3.21-2.38-5.29-7.38-5.79-11.2c-0.99-7.57,4.68-12.85,11.02-13.8
	c7.34-1.09,4.56-13.45-3.37-11.07c-10.92,3.27-17.73,14.2-16.19,25.98c1.36,10.43,9.15,19.67,19.38,22.97
	c2.58,0.84,5.16,1.25,7.67,1.25c6.31,0,14.03-2.03,18.71-7c14.99-15.92,5.07-42.89,0.23-58.67c-4.39-14.29-7.46-25.64-9.52-34.76
	c3-4.06,6.15-8.44,9.48-13.16C446.46,132.72,450.12,118.64,441.92,112.8z M424,149.68c-1.61,2.29-3.17,4.49-4.7,6.6
	c-2.85-17.7-0.27-23.77,3.37-28.82c3.79-5.25,9.82-7.99,12.83-7.99c0.61,0,1.1,0.11,1.42,0.34
	C438.06,120.62,439.2,128.07,424,149.68z"/>
<path d="M716.99,129.34c-4.04-10.36-11.76-18.38-21.19-22.03c-0.61-0.24-1.37-0.37-2.13-0.37c-2.06,0-4.5,0.97-5.16,3.68
	c-0.88,3.61,1.3,6.25,3.7,7.18c5.97,2.3,13.26,6.06,16.64,14.72c3.35,8.6,3.15,18.23-0.56,25.75c-0.31,0.63-0.65,1.26-1.02,1.87
	c-0.05-0.1-0.11-0.19-0.16-0.29c-6.78-12.16-21.13-26.36-39.29-26.36c-0.92,0-1.85,0.04-2.76,0.12
	c-10.21,0.84-18.05,5.78-22.07,13.9c-2.38,4.81-2.39,10.63-0.02,16.38c3.16,7.66,10.04,14.26,17.52,16.82
	c5.31,1.81,11.2,2.77,17.04,2.77c8.64,0,17.09-2.12,23.91-5.98c-1.43,7.67-6.86,15.62-13.73,20.01c-9,5.75-18.57,8.63-31.99,9.62
	c-3.66,0.27-7.29,0.44-10.59,0.56c-2.39-6.8-5.33-13.38-7.98-19.37c-1.56-3.52-2.71-5.57-4.44-9.02c-1.82-3.63-3.73-7.23-5.58-10.84
	c-0.93-1.81-1.85-3.62-2.74-5.44c-0.34-0.69-1.96-3.31-2.45-5.22c4.17-7.55,7.97-14.66,11.24-20.78l0.97-1.81
	c9.13-17.08,10.54-28.4,4.18-33.62c-7.35-6.04-18.3,0.24-24.54,5.3c-6.58,5.34-10.31,13.59-12.45,21.61
	c-3.05,11.43-1.53,23.93,2.49,34.92c0.64,1.74,1.34,3.45,2.08,5.15c-10.93,18.71-23.46,37.94-34.69,48.7
	c-2.34,2.25-8.59,9.85-12.48,7.22c-4.17-2.82-1.73-12.96-0.99-18.89c0.99-7.95,3.26-16.96,4.81-24.82
	c3.05-15.43,6.3-23.7,10.37-38.52c2.33-8.47,5.49-16.61,8.33-24.9c1.3-3.8,4.77-13.02-2.77-11.76c-7.45,1.24-11.48,6.67-16.67,19.63
	c-2.15,5.38-8.61,23.18-11.71,33.74c-3.96,13.51-10.32,23.36-19.5,34c-4.88,5.65-10.63,11.4-17.63,14.35
	c-5.2,2.19-8.38,0.15-8.54-5.67c-0.18-6.29,0.6-12.72,1.66-18.91c2.2-12.89,6.15-25.42,10.67-37.67c2.33-6.32,5.29-12.68,8-18.41
	c1.94-4.1,5.4-14.22-3.69-12.54c-10.62,1.96-13.9,9.24-16.7,15.25c-9.96,21.41-30.39,67.63-4.86,85.68
	c0.11,0.08,0.23,0.15,0.35,0.22c3.17,1.81,8.61,3.28,16.45-0.01c7.8-3.28,16.78-10.97,25.75-22.9c-0.46,2.42-0.9,4.85-1.31,7.28
	c-0.79,4.71-1.68,9.49-1.88,14.28c-0.25,5.97,1.29,12.65,5.39,17.18c10.86,11.95,24.25,0.69,32.9-7.6
	c10.99-10.53,22.69-27.88,33.23-45.54c4.57,8.74,14.39,31.54,14.39,31.54c-1.34,0.14-4.56,1.05-5.63,1.34
	c-13.17,3.67-20.85,9.68-26.16,18.41c-8.09,13.29-3.91,22.29-0.69,26.47c4.95,6.44,13.95,10.09,23.51,10.09
	c3.52,0,7.12-0.5,10.61-1.53c12.63-3.73,20.83-13.03,22.94-25.93c1.16-7.11,0.31-14.52-1.55-21.83c0.68-0.01,1.36-0.01,2-0.02
	l3.18-0.03c4.06-0.05,9.37-0.51,14.56-1.26c9.42-1.36,16.5-4.95,24.87-10.29c11.62-7.43,19.16-21.87,17.97-34.41
	c2.31-2.49,4.24-5.29,5.73-8.33C720.97,152.31,721.29,140.36,716.99,129.34z M677.67,174.77c-4.91,0-9.87-0.81-14.34-2.34
	c-5.13-1.75-10.06-6.52-12.27-11.88c-0.99-2.4-1.83-5.93-0.23-9.16c3.34-6.75,9.97-8.65,14.95-9.07c0.65-0.05,1.31-0.08,1.96-0.08
	l0.42,0c13.33,0.23,25.32,11.14,31.29,21.86c0.58,1.05,1.06,2.15,1.43,3.28C694.9,172.15,686.67,174.77,677.67,174.77z
	 M615.11,138.38c-1.02-7.7,0.83-19.49,7.05-26.11c2-2.12,7.51-6.22,10.62-3.8c1.02,0.79,0.8,3.5,0.61,4.7
	c-1.11,6.94-3.79,12.24-6.85,17.97l-0.97,1.81c-2.27,4.25-5.25,9.62-8.15,14.94C616.38,144.92,615.53,141.5,615.11,138.38z
	 M632.52,240.71c-2.98,14.48-22.23,20.02-32,8.59c-4.58-5.36-1.46-14.8,2.7-19.4c5.28-5.84,12.89-9.25,20.35-11.33
	c1.45-0.4,2.92-0.75,4.39-1.08c1.31,3.39,2.45,6.86,3.28,10.45C632.19,232.03,632.89,236.45,632.52,240.71z"/>
<path d="M318.73,236.12c-0.7-1.92-1.73-3.57-3.07-4.94c-1.34-1.38-3.14-2.19-5.38-2.45c-0.49-0.05-0.98-0.08-1.45-0.08
	c-1.66,0-3.17,0.29-4.52,0.88c-1.72,0.73-3.2,2.01-4.46,3.83c-1.59,2.43-2.66,5.34-3.2,8.74c-0.38,2.43-0.58,4.88-0.58,7.37
	c0,0.99,0.03,1.98,0.08,2.99c0.24,3.47,0.73,6.57,1.48,9.31c0.4,1.5,0.92,2.98,1.56,4.46c0.64,1.48,1.5,2.76,2.59,3.85
	c1.09,1.09,2.51,1.8,4.26,2.15c0.79,0.13,1.53,0.19,2.25,0.19c1.72,0,3.21-0.36,4.49-1.07c1.83-1.04,3.3-2.51,4.41-4.41
	c1.11-1.9,1.95-3.95,2.52-6.16c0.8-3.63,1.21-7.27,1.21-10.9c0-2.68-0.22-5.37-0.66-8.05C319.94,239.94,319.44,238.04,318.73,236.12
	z M316.42,255.51c-0.27,2.89-0.62,5.1-1.04,6.63c-0.11,0.35-0.23,0.68-0.36,0.99c-0.6,1.53-1.42,2.79-2.44,3.78
	c-0.89,0.86-1.83,1.29-2.82,1.29c-0.15,0-0.29-0.01-0.44-0.03c-1.15-0.15-2.23-1.14-3.23-2.99c-1.15-2.26-1.96-5.05-2.44-8.35
	c-0.37-2.52-0.55-5.05-0.55-7.59c0-0.79,0.02-1.57,0.05-2.36c0.16-3.34,0.62-6.23,1.37-8.65c0.31-0.93,0.8-1.9,1.48-2.92
	c0.68-1.01,1.5-1.79,2.47-2.34c0.55-0.33,1.12-0.49,1.72-0.49c0.48,0,0.97,0.1,1.48,0.3c1.68,0.78,2.9,2.44,3.67,4.96
	c0.77,2.52,1.21,5.4,1.32,8.63c0.04,0.91,0.05,1.82,0.05,2.71C316.72,251.31,316.62,253.45,316.42,255.51z"/>
<path d="M347.79,254.6c0.15-2.44,0.24-4.62,0.26-6.53v-0.35l0.03-1.92c0-1.94-0.05-3.84-0.14-5.73c-0.04-1.42-0.06-2.85-0.08-4.27
	v-0.82c0.02-0.26,0.03-0.52,0.03-0.79c0-0.4-0.02-0.83-0.05-1.29c-0.04-0.77-0.2-1.42-0.49-1.97c-0.29-0.55-0.79-0.84-1.51-0.88
	c-0.93,0.07-1.51,0.51-1.73,1.31c-0.16,0.66-0.25,1.31-0.25,1.94v0.33c0.02,1.99,0.03,3.98,0.03,5.97c0,4.97-0.06,9.92-0.19,14.87
	c-0.05,1.53-0.3,3.26-0.73,5.18c-0.43,1.92-0.97,3.56-1.63,4.93c-0.8,1.51-1.52,2.27-2.16,2.27h-0.05
	c-0.68-0.04-1.27-0.58-1.78-1.64c-0.51-1.06-0.94-2.32-1.29-3.79c-0.35-1.47-0.62-2.85-0.81-4.14c-0.19-1.29-0.29-2.2-0.29-2.73
	c-0.07-2.52-0.12-4.58-0.14-6.19c-0.02-0.73-0.03-1.45-0.03-2.16c-0.04-1.3-0.05-2.59-0.05-3.89c0-0.88,0.01-1.74,0.03-2.6
	c0.02-0.42,0.05-0.9,0.08-1.45c0.07-0.75,0.11-1.51,0.11-2.3c0-0.4-0.01-0.81-0.03-1.23c-0.04-1.24-0.31-2.31-0.82-3.2
	c-0.51-0.89-1.42-1.39-2.71-1.48c-1.48,0.02-2.46,0.55-2.96,1.59c-0.46,0.97-0.68,2.02-0.68,3.15v0.25
	c-0.02,0.89-0.03,1.79-0.03,2.68c-0.05,1.79-0.08,3.58-0.08,5.37c0,2.88,0.11,6.2,0.33,9.94c0.09,1.35,0.31,3.16,0.64,5.42
	c0.34,2.26,0.88,4.53,1.63,6.79c0.75,2.26,1.8,4.06,3.15,5.4c0.97,0.97,2.14,1.45,3.51,1.45c0.53,0,1.09-0.07,1.67-0.22
	c2.25-0.68,4.01-1.92,5.29-3.73c1.28-1.81,2.21-3.91,2.81-6.3C347.26,259.45,347.64,257.03,347.79,254.6z"/>
<path d="M369.14,267.48c0.64,2.34,1.41,3.93,2.3,4.79c0.49,0.48,1.11,0.71,1.86,0.71c1.17-0.07,1.86-0.47,2.08-1.18
	c0.09-0.27,0.14-0.57,0.14-0.9c0-0.82-0.29-1.89-0.88-3.2l-2.96-7.01c-1.35-3.29-2.73-6.57-4.14-9.86c3.19-2.03,5.34-4.61,6.44-7.75
	c0.46-1.39,0.68-2.69,0.68-3.92c0-0.99-0.15-1.92-0.44-2.79c-0.68-1.97-1.88-3.64-3.6-5c-1.73-1.36-3.76-2.36-6.09-3
	c-1.41-0.4-2.83-0.6-4.27-0.6c-1.59,0-2.73,0.44-3.42,1.31c-0.57,0.73-0.85,1.76-0.85,3.09c0.09,7.27,0.14,12.76,0.14,16.49
	c0,4.04-0.05,9.54-0.14,16.52c-0.04,0.6-0.05,1.2-0.05,1.81l0.03,1.4c0.16,2.54,1.33,3.87,3.51,4c1.53-0.04,2.51-0.57,2.93-1.59
	c0.37-0.89,0.55-1.87,0.55-2.93c-0.09-2.61-0.14-8.85-0.14-18.71l0.05-17.26c5.26,1.37,7.89,3.92,7.89,7.64
	c0,1.1-0.27,2.21-0.82,3.34c-1.1,2.21-2.95,3.99-5.56,5.34c-0.82,0.44-1.23,1.07-1.23,1.89c0.02,0.26,0.09,0.53,0.22,0.82
	c1.62,3.91,3.03,7.8,4.22,11.69L369.14,267.48z"/>
<path d="M338,322.76c-1.22,1.17-2.31,1.8-3.27,1.89h-0.19c-0.9,0-1.94-0.51-3.11-1.52c-0.34-0.3-0.72-0.58-1.14-0.82
	c-0.36-0.23-0.7-0.35-1.04-0.35c-0.05,0-0.12,0.01-0.19,0.03c-0.41,0.04-0.75,0.34-1.04,0.9c-0.14,0.39-0.21,0.76-0.21,1.12
	c0,0.57,0.19,1.09,0.56,1.57c0.6,0.8,1.36,1.39,2.26,1.78c0.76,0.34,1.48,0.58,2.14,0.72c0.67,0.14,1.41,0.23,2.22,0.27
	c0.27,0.02,0.52,0.03,0.77,0.03c1.61,0,3.08-0.19,4.39-0.58c1.52-0.46,2.87-1.54,4.04-3.25c0.98-1.97,1.46-3.76,1.46-5.37
	c0-0.3-0.02-0.59-0.05-0.88c-0.2-1.85-0.81-3.56-1.85-5.16c-1.04-1.6-2.24-3.18-3.61-4.76c-1.21-1.4-2.35-2.88-3.43-4.44
	c-0.96-1.35-1.81-2.81-2.55-4.39c-0.64-1.35-0.96-2.75-0.96-4.2c0-0.23,0.01-0.47,0.03-0.72c0.19-0.71,0.5-1.37,0.9-1.97
	c0.66-0.78,1.35-1.17,2.07-1.17c0.21,0,0.43,0.04,0.64,0.11c0.96,0.28,1.88,0.75,2.77,1.41c0.74,0.53,1.43,0.9,2.05,1.12
	c0.16,0.05,0.3,0.08,0.43,0.08c0.43,0,0.79-0.24,1.09-0.72c0.14-0.28,0.21-0.58,0.21-0.88c0-0.3-0.08-0.62-0.24-0.96
	c-0.32-0.64-0.76-1.23-1.33-1.77c-0.57-0.54-1.07-0.95-1.52-1.21c-1.85-1.08-3.65-1.62-5.4-1.62c-0.55,0-1.09,0.05-1.62,0.16
	c-2.29,0.46-4.07,1.63-5.35,3.51c-0.87,1.28-1.3,2.78-1.3,4.52c0,0.83,0.1,1.71,0.29,2.63c0.87,2.68,2,5.07,3.38,7.17
	c1.38,2.1,2.9,4.18,4.55,6.24c0.59,0.74,1.18,1.51,1.78,2.29c1.06,1.33,1.81,2.75,2.24,4.26c0.14,0.5,0.21,0.99,0.21,1.49
	c0,1.03-0.29,2.07-0.88,3.14L338,322.76z"/>
<path d="M361.13,291.66c0.33-0.16,0.87-0.27,1.64-0.34c0.37-0.04,0.82-0.1,1.33-0.19c0.98-0.18,1.63-0.53,1.97-1.06
	c0.18-0.28,0.27-0.58,0.27-0.88c0-0.23-0.05-0.46-0.16-0.69c-0.27-0.51-0.76-0.86-1.49-1.04c-0.12-0.02-0.3-0.03-0.53-0.03
	c-0.3,0-0.71,0.02-1.22,0.05c-0.89,0.07-1.87,0.16-2.95,0.27c-1.08,0.11-2.05,0.2-2.9,0.29c-0.59,0.07-1.02,0.12-1.3,0.13
	c-0.69,0.07-1.39,0.14-2.1,0.21c-1.21,0.11-2.42,0.22-3.64,0.35c-0.62,0.05-1.13,0.27-1.52,0.64c-0.3,0.28-0.45,0.66-0.45,1.14
	c0,0.12,0.01,0.26,0.03,0.4c0.2,0.85,0.59,1.34,1.17,1.46c0.32,0.07,0.66,0.11,1.04,0.11c0.3,0,0.62-0.03,0.96-0.08
	c0.35-0.07,0.7-0.11,1.04-0.11c0.35,0,0.7,0.05,1.04,0.13c0.35,0.21,0.55,0.68,0.58,1.41c0.02,0.35,0.03,0.7,0.03,1.04
	c0,0.34-0.01,0.67-0.03,1.01c-0.02,0.25-0.03,0.46-0.03,0.64c-0.02,2.06-0.03,4.11-0.03,6.17v0.37c0,1.85,0.01,3.69,0.03,5.54
	c0.02,1.56,0.03,3.13,0.03,4.71c0,1.56-0.01,3.12-0.03,4.68c-0.02,0.48-0.04,1.03-0.08,1.65c-0.07,0.83-0.11,1.69-0.11,2.58v0.9
	c0.04,1.21,0.27,2.26,0.72,3.17c0.44,0.9,1.25,1.44,2.42,1.62c0.2,0.02,0.39,0.03,0.59,0.03c0.94,0,1.64-0.27,2.1-0.8
	c0.53-0.64,0.86-1.46,0.98-2.45c0.09-0.78,0.13-1.53,0.13-2.26v-0.61c-0.05-4.52-0.08-9.05-0.08-13.57v-4.12
	c0-2.77-0.01-5.52-0.03-8.27l-0.03-0.61c-0.02-0.39-0.03-0.75-0.03-1.09c0-0.64,0.03-1.14,0.08-1.49
	C360.61,292.16,360.8,291.82,361.13,291.66z"/>
<path d="M369.79,318.75c0.39,1.45,0.9,2.9,1.52,4.34c0.62,1.44,1.46,2.68,2.51,3.74c1.05,1.05,2.43,1.75,4.14,2.09
	c0.76,0.12,1.49,0.19,2.18,0.19c1.67,0,3.12-0.35,4.36-1.04c1.77-1.01,3.2-2.44,4.28-4.28c1.08-1.84,1.9-3.84,2.45-5.99
	c0.78-3.53,1.17-7.06,1.17-10.59c0-2.61-0.21-5.21-0.64-7.82c-0.3-1.83-0.79-3.67-1.48-5.53c-0.68-1.86-1.68-3.46-2.98-4.8
	c-1.3-1.34-3.05-2.13-5.23-2.38c-0.48-0.05-0.95-0.08-1.41-0.08c-1.61,0-3.08,0.28-4.39,0.85c-1.67,0.71-3.11,1.95-4.34,3.72
	c-1.54,2.36-2.58,5.19-3.11,8.49c-0.37,2.36-0.56,4.74-0.56,7.16c0,0.96,0.03,1.93,0.08,2.9
	C368.58,313.07,369.06,316.09,369.79,318.75z M375.16,304.3c0.16-3.25,0.6-6.05,1.33-8.41c0.3-0.9,0.78-1.85,1.44-2.83
	c0.66-0.98,1.45-1.74,2.39-2.27c0.53-0.32,1.09-0.48,1.68-0.48c0.46,0,0.94,0.1,1.44,0.29c1.63,0.76,2.82,2.37,3.57,4.81
	c0.74,2.45,1.17,5.24,1.28,8.38c0.04,0.89,0.05,1.76,0.05,2.63c0,2.16-0.1,4.25-0.29,6.25c-0.27,2.8-0.6,4.95-1.01,6.44
	c-0.11,0.34-0.22,0.66-0.35,0.96c-0.58,1.49-1.37,2.71-2.37,3.67c-0.87,0.83-1.78,1.25-2.74,1.25c-0.14,0-0.28-0.01-0.43-0.03
	c-1.12-0.14-2.16-1.11-3.14-2.9c-1.12-2.2-1.91-4.9-2.37-8.11c-0.35-2.45-0.53-4.9-0.53-7.37
	C375.11,305.83,375.13,305.06,375.16,304.3z"/>
<path d="M408.26,305.6c-0.8,0.43-1.2,1.04-1.2,1.83c0.02,0.25,0.09,0.52,0.21,0.8c1.58,3.8,2.94,7.58,4.1,11.36l1.52,4.71
	c0.62,2.27,1.37,3.82,2.23,4.66c0.48,0.46,1.08,0.69,1.81,0.69c1.14-0.07,1.81-0.45,2.02-1.15c0.09-0.27,0.13-0.56,0.13-0.88
	c0-0.8-0.28-1.83-0.85-3.11l-2.87-6.81c-1.31-3.19-2.65-6.39-4.02-9.58c3.1-1.97,5.19-4.48,6.25-7.53c0.44-1.35,0.67-2.62,0.67-3.81
	c0-0.96-0.14-1.86-0.43-2.71c-0.66-1.92-1.82-3.54-3.5-4.86c-1.68-1.32-3.65-2.29-5.92-2.91c-1.37-0.39-2.75-0.59-4.15-0.59
	c-1.54,0-2.65,0.43-3.33,1.28c-0.55,0.71-0.82,1.71-0.82,3.01c0.09,7.06,0.13,12.4,0.13,16.02c0,3.92-0.04,9.27-0.13,16.04
	c-0.04,0.59-0.05,1.17-0.05,1.76l0.03,1.36c0.16,2.46,1.29,3.76,3.41,3.88c1.49-0.04,2.44-0.55,2.85-1.54
	c0.35-0.87,0.53-1.82,0.53-2.85c-0.09-2.54-0.13-8.59-0.13-18.17l0.05-16.76c5.11,1.33,7.66,3.8,7.66,7.42
	c0,1.06-0.27,2.15-0.8,3.25C412.59,302.56,410.79,304.29,408.26,305.6z"/>
<path d="M430.07,320.48c-0.04,0.6-0.05,1.22-0.05,1.86c0,0.5,0.01,1,0.03,1.52c0.05,1.19,0.31,2.21,0.79,3.07
	c0.47,0.86,1.31,1.31,2.51,1.34c1.05-0.02,1.83-0.33,2.34-0.94c0.51-0.61,0.84-1.35,0.98-2.22c0.14-0.8,0.21-1.58,0.21-2.34v-0.24
	c0.02-2.02,0.04-4.51,0.05-7.48c0-2.34,0.01-4.51,0.03-6.49c1.63-1.74,2.96-3.99,3.98-6.74c1.02-2.76,1.72-5.11,2.09-7.06
	c0.04-0.16,0.08-0.35,0.13-0.56c0.18-0.73,0.35-1.61,0.51-2.66c0.09-0.53,0.13-1.04,0.13-1.52c0-0.48-0.04-0.93-0.13-1.36
	c-0.14-0.85-0.59-1.36-1.36-1.52h-0.27c-0.69,0-1.19,0.27-1.49,0.8c-0.32,0.6-0.51,1.26-0.59,1.97c-0.16,1.37-0.47,3.05-0.95,5.04
	c-0.47,1.99-1.09,3.95-1.85,5.88c-0.76,1.92-1.67,3.47-2.71,4.64c-1.01-1.22-1.84-2.67-2.49-4.32c-0.65-1.66-1.17-3.22-1.56-4.67
	c-0.18-0.6-0.34-1.25-0.48-1.94c-0.25-1.51-0.68-2.9-1.3-4.18c-0.62-1.28-1.73-1.99-3.33-2.13c-1.49,0-2.39,0.46-2.71,1.38
	c-0.18,0.48-0.27,1.01-0.27,1.6c0,0.5,0.07,1.04,0.21,1.62c0.37,1.65,0.93,3.54,1.68,5.67c0.74,2.13,1.64,4.16,2.67,6.11
	c1.04,1.94,2.19,3.46,3.47,4.56c-0.07,3.41-0.15,6.8-0.24,10.19C430.13,319.7,430.11,320.07,430.07,320.48z"/>
<path d="M461.2,259.09c0.39,1.46,0.9,2.91,1.52,4.35c0.62,1.44,1.46,2.69,2.52,3.75c1.06,1.06,2.44,1.75,4.15,2.09
	c0.76,0.12,1.49,0.19,2.19,0.19c1.67,0,3.13-0.35,4.37-1.04c1.78-1.01,3.21-2.44,4.29-4.29c1.08-1.85,1.9-3.85,2.45-6
	c0.78-3.54,1.17-7.07,1.17-10.61c0-2.61-0.21-5.23-0.64-7.84c-0.3-1.83-0.79-3.68-1.48-5.54c-0.68-1.87-1.68-3.47-2.99-4.81
	c-1.31-1.34-3.05-2.14-5.24-2.39c-0.48-0.05-0.95-0.08-1.41-0.08c-1.62,0-3.08,0.29-4.4,0.85c-1.67,0.71-3.12,1.96-4.35,3.73
	c-1.55,2.36-2.59,5.2-3.12,8.5c-0.37,2.36-0.56,4.75-0.56,7.17c0,0.96,0.03,1.93,0.08,2.91C459.99,253.4,460.47,256.42,461.2,259.09
	z M466.59,244.61c0.16-3.25,0.6-6.06,1.33-8.42c0.3-0.91,0.78-1.85,1.44-2.84c0.66-0.99,1.46-1.75,2.4-2.28
	c0.53-0.32,1.09-0.48,1.68-0.48c0.46,0,0.94,0.1,1.44,0.29c1.63,0.76,2.82,2.37,3.57,4.83c0.75,2.45,1.17,5.25,1.28,8.4
	c0.04,0.89,0.05,1.77,0.05,2.64c0,2.17-0.1,4.26-0.29,6.26c-0.27,2.81-0.6,4.96-1.01,6.45c-0.11,0.34-0.22,0.66-0.35,0.96
	c-0.59,1.49-1.38,2.72-2.37,3.68c-0.87,0.84-1.79,1.25-2.75,1.25c-0.14,0-0.28-0.01-0.43-0.03c-1.12-0.14-2.17-1.11-3.15-2.91
	c-1.12-2.2-1.91-4.91-2.37-8.13c-0.36-2.45-0.53-4.91-0.53-7.38C466.53,246.14,466.55,245.38,466.59,244.61z"/>
<path d="M497.43,236.21c0.07-0.73,0.11-1.48,0.11-2.24c0-0.39-0.01-0.79-0.03-1.2c-0.04-1.21-0.3-2.25-0.8-3.12
	c-0.5-0.87-1.38-1.35-2.64-1.44c-1.44,0.02-2.4,0.53-2.88,1.55c-0.44,0.94-0.67,1.96-0.67,3.07v0.24c-0.02,0.87-0.03,1.74-0.03,2.61
	c-0.05,1.74-0.08,3.48-0.08,5.22c0,2.81,0.11,6.03,0.32,9.68c0.09,1.32,0.3,3.08,0.63,5.28c0.33,2.2,0.86,4.41,1.59,6.61
	c0.73,2.2,1.75,3.95,3.07,5.25c0.94,0.94,2.08,1.41,3.41,1.41c0.52,0,1.06-0.07,1.63-0.21c2.19-0.66,3.9-1.87,5.14-3.63
	c1.24-1.76,2.15-3.8,2.73-6.13c0.58-2.33,0.94-4.68,1.09-7.05c0.15-2.37,0.24-4.49,0.25-6.36v-0.35l0.03-1.87
	c0-1.88-0.04-3.74-0.13-5.57c-0.04-1.39-0.06-2.77-0.08-4.16v-0.8c0.02-0.25,0.03-0.51,0.03-0.77c0-0.39-0.02-0.81-0.05-1.25
	c-0.04-0.75-0.19-1.39-0.48-1.92c-0.29-0.53-0.77-0.82-1.47-0.85c-0.91,0.07-1.47,0.5-1.68,1.28c-0.16,0.64-0.24,1.27-0.24,1.89
	v0.32c0.02,1.94,0.03,3.87,0.03,5.81c0,4.83-0.06,9.66-0.19,14.48c-0.05,1.49-0.29,3.17-0.71,5.04c-0.42,1.87-0.95,3.46-1.59,4.8
	c-0.78,1.47-1.48,2.21-2.11,2.21h-0.05c-0.66-0.04-1.24-0.57-1.73-1.6c-0.5-1.03-0.91-2.26-1.25-3.69c-0.34-1.43-0.6-2.77-0.79-4.03
	c-0.19-1.25-0.28-2.14-0.28-2.65c-0.07-2.45-0.12-4.46-0.13-6.02c-0.02-0.71-0.03-1.41-0.03-2.11c-0.04-1.26-0.05-2.52-0.05-3.79
	c0-0.85,0.01-1.7,0.03-2.53C497.36,237.22,497.39,236.75,497.43,236.21z"/>
<path d="M526.16,245.92c-0.8,0.43-1.2,1.04-1.2,1.84c0.02,0.25,0.09,0.52,0.21,0.8c1.58,3.8,2.95,7.6,4.11,11.38l1.52,4.72
	c0.62,2.27,1.37,3.83,2.24,4.66c0.48,0.46,1.08,0.69,1.81,0.69c1.14-0.07,1.81-0.45,2.03-1.15c0.09-0.27,0.13-0.56,0.13-0.88
	c0-0.8-0.28-1.84-0.85-3.12l-2.88-6.83c-1.31-3.2-2.66-6.4-4.03-9.6c3.11-1.97,5.2-4.49,6.26-7.54c0.44-1.35,0.67-2.62,0.67-3.81
	c0-0.96-0.14-1.87-0.43-2.72c-0.66-1.92-1.83-3.54-3.51-4.87c-1.68-1.32-3.66-2.3-5.93-2.92c-1.37-0.39-2.75-0.59-4.16-0.59
	c-1.55,0-2.66,0.43-3.33,1.28c-0.55,0.71-0.83,1.71-0.83,3.01c0.09,7.07,0.13,12.42,0.13,16.05c0,3.93-0.05,9.29-0.13,16.07
	c-0.04,0.59-0.05,1.17-0.05,1.76l0.03,1.36c0.16,2.47,1.3,3.77,3.41,3.89c1.49-0.04,2.44-0.55,2.85-1.55
	c0.36-0.87,0.53-1.82,0.53-2.85c-0.09-2.54-0.13-8.61-0.13-18.21l0.05-16.79c5.12,1.33,7.68,3.81,7.68,7.44
	c0,1.07-0.27,2.15-0.8,3.25C530.51,242.87,528.71,244.6,526.16,245.92z"/>
<path d="M517.6,307.74c-0.5-4.69-0.75-8.95-0.75-12.77c0-0.71-0.02-1.5-0.05-2.37c-0.2-3.31-0.97-4.99-2.32-5.04
	c-0.5,0-0.91,0.2-1.23,0.61c-0.32,0.41-0.55,0.9-0.68,1.48c-0.13,0.58-0.2,1.06-0.2,1.45c0.07,1.87,0.22,3.89,0.45,6.08
	c0.27,2.43,0.43,4.76,0.48,6.98c0,0.32-0.01,0.53-0.03,0.61c-0.05,0.28-2.68,0.6-7.89,0.96c-0.16,0-0.31,0.01-0.44,0.03
	c-0.13,0.02-0.26,0.03-0.39,0.03c-0.25,0-0.42-0.04-0.51-0.12c-0.09-0.08-0.13-1.44-0.13-4.09c0-2.99,0.05-5.53,0.16-7.62
	c0.05-0.46,0.08-0.91,0.08-1.33c0-0.87-0.1-1.69-0.29-2.45c-0.27-1.15-1.13-1.96-2.59-2.4c-0.36-0.05-0.69-0.08-1.01-0.08
	c-2.01,0-3.01,1.45-3.01,4.35l-0.03,5.86c0,3.7,0.02,6.95,0.05,9.76c0.04,2.9,0.05,5.79,0.05,8.69l-0.03,6.21
	c0,0.94,0.04,1.72,0.11,2.35c0.2,1.92,1.24,2.91,3.15,2.96c1.4,0,2.39-0.42,2.96-1.25c0.48-0.89,0.72-2.31,0.72-4.27
	c-0.02-2.36-0.14-4.7-0.37-7.01c-0.14-1.71-0.21-2.82-0.21-3.33c0-0.87,0.12-1.49,0.37-1.87c0.32-0.5,1.15-0.76,2.48-0.77l1.57-0.13
	c1.96-0.21,3.43-0.33,4.42-0.35c0.48,0,0.76,0.04,0.84,0.11c0.08,0.07,0.14,0.39,0.19,0.95c0.04,0.56,0.07,1.18,0.09,1.85
	c0.02,0.68,0.04,1.31,0.05,1.89c0.02,0.89,0.03,2.19,0.03,3.89l-0.03,2.53c0,1.76,0.09,3.4,0.27,4.93c0.25,1.26,0.76,2.06,1.55,2.4
	c0.2,0.09,0.39,0.13,0.59,0.13c0.57,0,1.15-0.36,1.73-1.07c0.27-0.41,0.46-0.89,0.59-1.44c0.11-0.71,0.16-1.63,0.16-2.75
	c0-1.03-0.05-2.24-0.13-3.63C518.2,314.35,517.92,310.69,517.6,307.74z"/>
<path d="M547.18,293.51c-0.68-1.87-1.68-3.47-2.99-4.81c-1.31-1.34-3.05-2.14-5.24-2.39c-0.48-0.05-0.95-0.08-1.41-0.08
	c-1.62,0-3.08,0.29-4.4,0.85c-1.67,0.71-3.12,1.96-4.34,3.73c-1.55,2.36-2.59,5.2-3.12,8.5c-0.37,2.36-0.56,4.75-0.56,7.17
	c0,0.96,0.03,1.93,0.08,2.91c0.23,3.38,0.71,6.4,1.44,9.06c0.39,1.46,0.9,2.91,1.52,4.35c0.62,1.44,1.46,2.69,2.52,3.75
	c1.06,1.06,2.44,1.76,4.15,2.09c0.76,0.12,1.49,0.19,2.19,0.19c1.67,0,3.13-0.35,4.37-1.04c1.78-1.01,3.21-2.44,4.29-4.29
	c1.08-1.85,1.9-3.85,2.45-6c0.78-3.54,1.17-7.07,1.17-10.61c0-2.61-0.21-5.23-0.64-7.84C548.36,297.22,547.86,295.37,547.18,293.51z
	 M544.93,312.38c-0.27,2.81-0.6,4.96-1.01,6.45c-0.11,0.34-0.22,0.66-0.35,0.96c-0.59,1.49-1.38,2.72-2.37,3.68
	c-0.87,0.84-1.79,1.25-2.74,1.25c-0.14,0-0.29-0.01-0.43-0.03c-1.12-0.14-2.17-1.11-3.15-2.91c-1.12-2.2-1.91-4.91-2.37-8.13
	c-0.36-2.45-0.53-4.91-0.53-7.38c0-0.76,0.02-1.53,0.05-2.29c0.16-3.25,0.6-6.06,1.33-8.42c0.3-0.91,0.78-1.85,1.44-2.84
	c0.66-0.99,1.46-1.75,2.4-2.28c0.53-0.32,1.09-0.48,1.68-0.48c0.46,0,0.94,0.1,1.44,0.29c1.63,0.76,2.83,2.37,3.57,4.83
	c0.75,2.45,1.17,5.25,1.28,8.4c0.04,0.89,0.05,1.77,0.05,2.64C545.22,308.29,545.12,310.37,544.93,312.38z"/>
<path d="M585.61,303.08c-0.09-2.33-0.16-4.59-0.21-6.77v-1.71c0.02-0.36,0.03-0.71,0.03-1.07c0-0.69-0.03-1.4-0.08-2.13
	c-0.07-1.1-0.32-2.07-0.76-2.89c-0.43-0.83-1.19-1.35-2.25-1.59c-0.23-0.04-0.46-0.05-0.69-0.05c-1.14,0-2.04,0.43-2.69,1.28
	c-0.78,1.01-1.33,2.15-1.65,3.41c-1.07,3.73-2.58,9.77-4.56,18.13c-1.92-3.91-3.34-6.88-4.27-8.9c-0.76-1.71-1.52-3.41-2.27-5.12
	c-0.21-0.5-0.42-1-0.61-1.52c-0.41-1.26-0.96-2.39-1.64-3.39c-0.68-1-1.74-1.55-3.16-1.68h-0.16c-1.6,0-2.62,0.5-3.07,1.49
	c-0.39,0.87-0.59,1.9-0.59,3.09c0,0.2,0.01,0.39,0.03,0.59c0.05,2.44,0.09,4.87,0.11,7.3v3.65l0.05,5.3
	c0.02,1.74,0.03,3.48,0.03,5.22c0,1.72-0.01,3.46-0.03,5.2c0,0.29-0.01,0.58-0.03,0.88c-0.02,0.34-0.03,0.68-0.03,1.04
	c0,0.52,0.02,1.03,0.05,1.55c0.07,0.85,0.31,1.59,0.73,2.21c0.42,0.62,1.14,0.99,2.17,1.09c0.16,0.02,0.32,0.03,0.48,0.03
	c1.07,0,1.86-0.28,2.37-0.83c0.59-0.62,0.93-1.42,1.04-2.4c0.07-0.62,0.11-1.25,0.11-1.89c0-0.36-0.01-0.72-0.03-1.09
	c-0.21-4.99-0.32-9.98-0.32-14.96c0-2.34,0.03-4.69,0.08-7.04c2.31,5.03,4.52,10.16,6.64,15.38c0.62,1.48,1.23,2.93,1.84,4.37
	c0.11,0.66,0.47,1.14,1.09,1.44c0.27,0.11,0.52,0.16,0.77,0.16c0.23,0,0.45-0.04,0.67-0.13c0.48-0.2,0.83-0.53,1.04-1.01
	c0.87-3.96,1.87-7.81,2.98-11.54c1.1-3.73,1.96-7.2,2.59-10.4c0.27,3.4,0.4,6.17,0.4,8.32c0,2.47-0.04,5.02-0.11,7.65
	c-0.07,3.11-0.11,6.02-0.11,8.74v0.19c0,0.52,0.06,1.15,0.19,1.89c0.12,0.84,0.38,1.59,0.77,2.25c0.39,0.67,0.98,1.03,1.76,1.08
	c0.84-0.02,1.39-0.33,1.65-0.93c0.23-0.52,0.35-1.07,0.35-1.65c0-0.11-0.01-0.22-0.03-0.35C586.07,317.9,585.84,310.6,585.61,303.08
	z"/>
<path d="M610.11,323.26l-1.55,0.11c-0.6,0.05-1.21,0.08-1.81,0.08c-0.6,0-1.21-0.03-1.81-0.08c-1.12-0.21-1.95-0.73-2.49-1.56
	c-0.54-0.83-0.91-1.79-1.09-2.88c-0.19-1.09-0.31-2.14-0.36-3.13c0-0.14-0.01-0.28-0.03-0.4c-0.02-0.36-0.05-0.72-0.11-1.09
	c-0.09-0.57-0.13-1.12-0.13-1.65c0-0.23,0.01-0.46,0.03-0.69c0.04-0.76,0.33-1.44,0.88-2.03c0.34-0.18,0.93-0.27,1.79-0.27h0.88
	c0.57,0,1.14,0.01,1.71,0.03c0.44,0.02,0.83,0.03,1.15,0.03h0.4c1.07-0.11,1.72-0.55,1.95-1.33c0.05-0.2,0.08-0.38,0.08-0.56
	c0-0.53-0.23-1.01-0.69-1.44c-0.39-0.27-0.95-0.42-1.68-0.45c-0.37-0.02-0.74-0.03-1.09-0.03c-0.34,0-0.68,0.01-1.01,0.03
	c-0.25,0.02-0.46,0.03-0.64,0.03c-0.39,0-0.75,0.02-1.07,0.05c-0.25,0.02-0.49,0.03-0.72,0.03c-0.52,0-0.93-0.07-1.25-0.21
	c-0.44-0.23-0.67-0.91-0.67-2.03c0.04-0.53,0.06-1.06,0.08-1.57c0.12-2.36,0.19-4.75,0.19-7.14v-0.53c0.07-1.62,0.5-2.6,1.28-2.93
	c0.59-0.25,1.3-0.37,2.13-0.37c0.28,0,0.58,0.02,0.88,0.05h0.93c1.33-0.02,2.25-0.28,2.75-0.77c0.36-0.35,0.53-0.73,0.53-1.12
	c0-0.16-0.03-0.32-0.08-0.48c-0.19-0.57-0.67-0.99-1.44-1.25c-0.34-0.09-1.03-0.14-2.07-0.16c-1.04-0.02-2.08-0.03-3.13-0.03h-1.97
	c-0.11,0-0.21-0.01-0.32-0.03c-0.57-0.04-1.09-0.05-1.57-0.05c-0.73,0-1.36,0.04-1.89,0.11c-0.87,0.12-1.51,0.53-1.91,1.23
	c-0.4,0.69-0.61,1.86-0.63,3.49c-0.02,0.23-0.03,0.47-0.03,0.72c-0.05,1.37-0.12,2.79-0.19,4.27c-0.2,3.73-0.3,7.54-0.32,11.44v0.32
	c0,3.75,0.29,7.29,0.88,10.61c0.25,1.58,0.67,3.03,1.27,4.35c0.6,1.32,1.68,2.26,3.27,2.82c1.32,0.37,2.93,0.57,4.85,0.59
	c0.55,0.02,1.07,0.03,1.57,0.03c1.28,0,2.43-0.04,3.44-0.11c1.46-0.13,2.39-0.51,2.8-1.15c0.2-0.34,0.29-0.66,0.29-0.96
	c0-0.32-0.1-0.63-0.29-0.93C611.66,323.62,611.01,323.29,610.11,323.26z"/>
<path d="M78.5,237.9c-0.69-1.89-1.7-3.51-3.02-4.87c-1.32-1.36-3.09-2.16-5.3-2.41c-0.49-0.05-0.96-0.08-1.43-0.08
	c-1.64,0-3.12,0.29-4.45,0.86c-1.69,0.72-3.16,1.98-4.4,3.77c-1.56,2.39-2.62,5.26-3.16,8.6c-0.38,2.39-0.57,4.81-0.57,7.25
	c0,0.97,0.03,1.95,0.08,2.94c0.23,3.42,0.72,6.47,1.46,9.17c0.4,1.47,0.91,2.94,1.54,4.4c0.63,1.46,1.48,2.72,2.55,3.79
	c1.07,1.07,2.47,1.78,4.19,2.12c0.77,0.12,1.51,0.19,2.21,0.19c1.69,0,3.16-0.35,4.42-1.05c1.8-1.02,3.24-2.47,4.34-4.34
	c1.1-1.87,1.92-3.89,2.48-6.07c0.79-3.58,1.19-7.15,1.19-10.73c0-2.64-0.22-5.29-0.65-7.93C79.69,241.66,79.19,239.79,78.5,237.9z
	 M76.22,256.99c-0.27,2.84-0.61,5.02-1.02,6.53c-0.11,0.34-0.23,0.66-0.35,0.97c-0.59,1.51-1.39,2.75-2.4,3.72
	c-0.88,0.85-1.81,1.27-2.78,1.27c-0.14,0-0.29-0.01-0.43-0.03c-1.13-0.14-2.19-1.12-3.18-2.94c-1.13-2.23-1.93-4.97-2.4-8.22
	c-0.36-2.48-0.54-4.97-0.54-7.47c0-0.77,0.02-1.55,0.05-2.32c0.16-3.29,0.61-6.13,1.35-8.52c0.31-0.92,0.79-1.87,1.46-2.87
	c0.66-1,1.47-1.77,2.43-2.31c0.54-0.32,1.11-0.49,1.7-0.49c0.47,0,0.95,0.1,1.46,0.3c1.65,0.77,2.86,2.4,3.61,4.88
	c0.76,2.48,1.19,5.31,1.29,8.49c0.04,0.9,0.05,1.79,0.05,2.67C76.51,252.85,76.42,254.96,76.22,256.99z"/>
<path d="M107.17,237.58v-0.81c0.02-0.25,0.03-0.51,0.03-0.78c0-0.4-0.02-0.82-0.05-1.27c-0.04-0.76-0.2-1.4-0.48-1.94
	c-0.29-0.54-0.78-0.83-1.48-0.86c-0.92,0.07-1.48,0.5-1.7,1.29c-0.16,0.65-0.24,1.29-0.24,1.91v0.32c0.02,1.96,0.03,3.92,0.03,5.88
	c0,4.89-0.06,9.77-0.19,14.64c-0.05,1.51-0.29,3.21-0.71,5.1c-0.42,1.89-0.96,3.51-1.6,4.85c-0.79,1.49-1.5,2.24-2.13,2.24h-0.05
	c-0.67-0.04-1.25-0.58-1.75-1.62c-0.5-1.04-0.93-2.29-1.27-3.73c-0.34-1.45-0.61-2.8-0.8-4.07c-0.19-1.27-0.28-2.16-0.28-2.68
	c-0.07-2.48-0.12-4.51-0.14-6.09c-0.02-0.72-0.03-1.43-0.03-2.13c-0.04-1.28-0.05-2.55-0.05-3.83c0-0.86,0.01-1.72,0.03-2.56
	c0.02-0.41,0.04-0.89,0.08-1.43c0.07-0.74,0.11-1.49,0.11-2.27c0-0.39-0.01-0.8-0.03-1.21c-0.04-1.22-0.31-2.27-0.81-3.15
	c-0.5-0.88-1.39-1.37-2.67-1.46c-1.46,0.02-2.43,0.54-2.91,1.56c-0.45,0.95-0.67,1.99-0.67,3.1v0.24c-0.02,0.88-0.03,1.76-0.03,2.64
	c-0.05,1.76-0.08,3.52-0.08,5.29c0,2.84,0.11,6.1,0.32,9.79c0.09,1.33,0.3,3.11,0.63,5.34c0.33,2.23,0.87,4.46,1.6,6.69
	c0.74,2.23,1.77,4,3.1,5.31c0.95,0.95,2.1,1.43,3.45,1.43c0.52,0,1.07-0.07,1.64-0.22c2.21-0.67,3.95-1.89,5.2-3.67
	c1.26-1.78,2.18-3.85,2.76-6.2c0.58-2.35,0.95-4.73,1.11-7.13c0.15-2.4,0.24-4.54,0.26-6.43v-0.35l0.03-1.89
	c0-1.91-0.05-3.78-0.13-5.64C107.22,240.38,107.19,238.98,107.17,237.58z"/>
<path d="M130.39,273.5c0.49,0.47,1.1,0.7,1.83,0.7c1.15-0.07,1.83-0.46,2.05-1.16c0.09-0.27,0.13-0.57,0.13-0.89
	c0-0.81-0.29-1.86-0.86-3.15l-2.91-6.9c-1.33-3.24-2.69-6.47-4.07-9.71c3.15-1.99,5.26-4.54,6.34-7.63
	c0.45-1.37,0.67-2.65,0.67-3.86c0-0.97-0.14-1.89-0.43-2.75c-0.67-1.94-1.85-3.58-3.55-4.92c-1.7-1.34-3.7-2.32-6-2.95
	c-1.38-0.4-2.79-0.59-4.21-0.59c-1.56,0-2.69,0.43-3.37,1.29c-0.56,0.72-0.84,1.73-0.84,3.05c0.09,7.15,0.13,12.57,0.13,16.23
	c0,3.97-0.05,9.39-0.13,16.26c-0.04,0.59-0.05,1.19-0.05,1.78l0.03,1.38c0.16,2.5,1.31,3.81,3.45,3.94
	c1.51-0.04,2.47-0.56,2.88-1.56c0.36-0.88,0.54-1.84,0.54-2.89c-0.09-2.57-0.13-8.71-0.13-18.42l0.05-16.99
	c5.18,1.35,7.77,3.86,7.77,7.52c0,1.08-0.27,2.18-0.81,3.29c-1.08,2.17-2.9,3.93-5.47,5.26c-0.81,0.43-1.21,1.05-1.21,1.86
	c0.02,0.25,0.09,0.52,0.22,0.81c1.6,3.85,2.98,7.68,4.15,11.51l1.54,4.77C128.75,271.08,129.51,272.65,130.39,273.5z"/>
<path d="M123.61,325.03c-0.54-0.13-1.14-0.19-1.81-0.19h-0.44c-0.2,0.02-0.4,0.03-0.58,0.03c-0.65,0-1.24-0.07-1.75-0.22
	c-0.85-0.35-1.49-1.05-1.89-2.1c-0.41-1.05-0.68-2.2-0.82-3.45c-0.14-1.25-0.23-2.35-0.26-3.3v-0.56c-0.13-2.6-0.19-5.2-0.19-7.8
	c0-3.58,0.12-7.44,0.36-11.56c0.04-0.5,0.09-1.06,0.17-1.67c0.15-1.02,0.23-2.06,0.25-3.12v-0.14c0-1-0.19-1.89-0.58-2.67
	c-0.41-0.8-1.19-1.32-2.34-1.56c-0.39-0.06-0.74-0.08-1.06-0.08c-0.82,0-1.45,0.19-1.89,0.58c-0.61,0.58-1,1.36-1.17,2.35
	c-0.17,0.99-0.25,2-0.25,3.02c0,0.15-0.01,0.31-0.03,0.47c-0.04,1.28-0.09,2.64-0.17,4.07c-0.2,4.4-0.31,8.66-0.31,12.78v0.33
	c0,4.01,0.32,7.67,0.97,10.97c0.59,3.1,1.56,5.19,2.9,6.27c1.24,1,3.3,1.5,6.15,1.5h1.25c0.56,0,1.19-0.03,1.89-0.08
	c0.87-0.08,1.62-0.3,2.23-0.67c0.48-0.3,0.72-0.75,0.72-1.37c0-0.13-0.01-0.27-0.03-0.42C124.73,325.67,124.3,325.2,123.61,325.03z"
	/>
<path d="M136.25,286.83l-6.35,0.45c-1.86,0.2-2.78,0.95-2.78,2.23v0.22c0,0.61,0.41,1.1,1.23,1.45c0.45-0.02,0.87-0.04,1.28-0.06
	v0.03c-0.04,5.24-0.06,10.66-0.06,16.26c0,3.56-0.03,7.13-0.08,10.69c0.02,2.58,0.23,4.63,0.64,6.15h-0.22
	c-1.99,0-2.99,0.67-3.01,2.01c0,1.26,0.73,1.89,2.2,1.89c0.87-0.07,1.77-0.11,2.7-0.11h4.09c1.47,0,2.22-0.67,2.26-2
	c0-1.19-0.81-1.82-2.42-1.89c0.41-1.56,0.63-3.65,0.67-6.27c-0.06-3.04-0.08-6.1-0.08-9.16c0-1.47,0.01-2.93,0.03-4.4v-6.6
	c0-0.67-0.03-1.52-0.08-2.55c-0.06-1.03-0.2-2.19-0.45-3.47c-0.05-0.28-0.12-0.54-0.19-0.78c1.69-0.35,2.53-0.97,2.53-1.87v-0.67
	C138.15,287.57,137.52,287.05,136.25,286.83z"/>
<path d="M152.41,291.23c0.33-0.63,1.01-0.98,2.03-1.06c0.5-0.04,0.99-0.06,1.48-0.06c0.48,0,0.96,0.02,1.42,0.06
	c0.39,0.04,0.71,0.06,0.97,0.06h0.11c0.67,0,1.24-0.18,1.73-0.53c0.41-0.3,0.61-0.74,0.61-1.34c0-0.11-0.01-0.23-0.03-0.36
	c-0.2-0.87-0.65-1.39-1.34-1.56c-0.48-0.11-0.98-0.17-1.5-0.17c-0.22,0-0.46,0.01-0.7,0.03c-0.24,0.02-0.47,0.03-0.7,0.03
	c-0.87,0-1.88-0.03-3.01-0.08c-1.02-0.06-1.98-0.08-2.87-0.08c-1.13,0-2.16,0.05-3.09,0.14c-1.17,0.32-1.88,1.05-2.12,2.2
	c-0.19,0.87-0.28,1.75-0.28,2.62c0,0.26,0.02,2.39,0.06,6.39c0.04,4,0.06,9.74,0.06,17.22l-0.06,7.19
	c-0.02,0.28-0.03,0.57-0.03,0.89c-0.02,0.41-0.03,0.82-0.03,1.23c0,0.52,0.02,1.05,0.06,1.59c0.07,0.93,0.36,1.69,0.86,2.28
	c0.45,0.56,1.22,0.84,2.31,0.84h0.2c1.6-0.13,2.65-0.74,3.15-1.84c0.43-0.98,0.64-2.09,0.64-3.31v-0.44
	c-0.04-1.71-0.06-3.1-0.08-4.18c-0.02-1.08-0.04-2.27-0.06-3.59v-2.14c-0.02-0.33-0.04-0.68-0.06-1.03
	c-0.02-0.32-0.04-0.64-0.06-0.97v-0.28c0-1.17,0.21-1.91,0.64-2.23c0.41-0.3,1.1-0.45,2.09-0.45h0.33c0.28,0,0.61,0.01,1,0.03
	c0.37,0.04,0.74,0.06,1.11,0.06c0.67,0,1.32-0.06,1.95-0.19c0.96-0.18,1.45-0.82,1.45-1.89v-0.11c-0.13-0.91-0.57-1.45-1.31-1.61
	c-0.54-0.13-1.09-0.19-1.64-0.19c-0.22,0-0.45,0.01-0.67,0.03c-0.19,0-0.35,0.01-0.5,0.03c-0.26,0-0.53,0.01-0.81,0.03
	c-0.32,0.04-0.64,0.06-0.97,0.06c-0.32,0-0.64-0.02-0.97-0.06c-0.65-0.07-1.14-0.39-1.48-0.95c-0.09-0.32-0.14-0.99-0.14-2.03v-4.04
	c0-0.32-0.01-0.68-0.03-1.09c-0.04-0.67-0.06-1.35-0.06-2.06v-0.72C152.1,292.59,152.2,291.82,152.41,291.23z"/>
<path d="M181.7,324.03l-1.62,0.11c-0.63,0.06-1.26,0.08-1.89,0.08c-0.63,0-1.26-0.03-1.89-0.08c-1.17-0.22-2.04-0.76-2.6-1.63
	c-0.57-0.86-0.95-1.87-1.14-3.01c-0.19-1.14-0.32-2.23-0.38-3.27c0-0.15-0.01-0.29-0.03-0.42c-0.02-0.37-0.06-0.75-0.11-1.14
	c-0.09-0.59-0.14-1.17-0.14-1.73c0-0.24,0.01-0.48,0.03-0.72c0.04-0.8,0.34-1.5,0.92-2.12c0.35-0.19,0.97-0.28,1.87-0.28h0.92
	c0.59,0,1.19,0.01,1.78,0.03c0.46,0.02,0.86,0.03,1.2,0.03h0.42c1.11-0.11,1.79-0.57,2.03-1.39c0.06-0.2,0.08-0.4,0.08-0.58
	c0-0.56-0.24-1.06-0.72-1.5c-0.41-0.28-0.99-0.44-1.75-0.47c-0.39-0.02-0.77-0.03-1.14-0.03c-0.35,0-0.71,0.01-1.06,0.03
	c-0.26,0.02-0.48,0.03-0.67,0.03c-0.41,0-0.78,0.02-1.11,0.06c-0.26,0.02-0.51,0.03-0.75,0.03c-0.54,0-0.97-0.07-1.31-0.22
	c-0.46-0.24-0.7-0.95-0.7-2.12c0.04-0.56,0.06-1.1,0.08-1.64c0.13-2.47,0.19-4.96,0.19-7.46v-0.56c0.07-1.69,0.52-2.71,1.34-3.06
	c0.61-0.26,1.36-0.39,2.23-0.39c0.3,0,0.6,0.02,0.92,0.06h0.97c1.39-0.02,2.35-0.29,2.87-0.81c0.37-0.37,0.56-0.76,0.56-1.17
	c0-0.17-0.03-0.33-0.08-0.5c-0.2-0.59-0.71-1.03-1.5-1.31c-0.35-0.09-1.07-0.15-2.16-0.17c-1.09-0.02-2.18-0.03-3.27-0.03h-2.06
	c-0.11,0-0.22-0.01-0.33-0.03c-0.59-0.04-1.14-0.06-1.64-0.06c-0.76,0-1.42,0.04-1.98,0.11c-0.91,0.13-1.57,0.56-1.99,1.28
	c-0.42,0.72-0.64,1.94-0.65,3.65c-0.02,0.24-0.03,0.49-0.03,0.75c-0.06,1.43-0.12,2.92-0.19,4.46c-0.2,3.9-0.32,7.88-0.33,11.95
	v0.33c0,3.92,0.31,7.61,0.92,11.08c0.26,1.65,0.7,3.17,1.32,4.54c0.62,1.37,1.76,2.36,3.41,2.95c1.37,0.39,3.06,0.59,5.07,0.61
	c0.57,0.02,1.12,0.03,1.64,0.03c1.34,0,2.53-0.04,3.59-0.11c1.52-0.13,2.5-0.53,2.92-1.2c0.2-0.35,0.31-0.69,0.31-1
	c0-0.33-0.1-0.66-0.31-0.98C183.32,324.4,182.65,324.07,181.7,324.03z"/>
<circle cx="241.08" cy="104.15" r="9.26"/>
<circle cx="387.75" cy="94.57" r="9.26"/>
<path d="M228.19,65.25c8.1,3,22.37,2.41,26.63-6.73c0.36-0.77,0.61-1.63,0.75-2.5c7.79-2.84,15.44-5.75,23.1-8.54
	c-3.95,6.26-5.58,13.84-4.47,21.53c0.25,1.74,2.32,2.53,3.79,1.84c7.12-3.34,14.72-8.03,17.08-16.06c1.26-4.28,0.76-8.84-1.39-12.5
	c8.38-2.73,16.9-5.12,25.71-6.94c-5.4,5.06-8.94,12.03-9.75,19.57c-0.15,1.35,1.12,3,2.57,2.93c13.57-0.65,24.55-12.22,24.84-25.38
	c9.33-1.17,18.72-1.8,28.12-1.87c-6.44,5.08-10.53,12.62-12.37,21.17c-0.33,1.53,0.43,3.6,2.35,3.55
	c13.33-0.35,24.02-11.48,24.62-24.33c3.73,0.22,7.46,0.51,11.18,0.93c5.03,0.57,10.01,1.34,14.95,2.28
	c-1.71,1.01-3.32,2.11-4.7,3.18c-5.27,4.07-8.79,9.34-11.65,15.28c-1.04,2.17,1.75,3.97,3.59,3.15c1.98-0.89,6.8-3.46,10.82-6.59
	c4.56-3.62,8.5-8,11.64-12.96c7.23,1.74,14.32,3.9,21.28,6.42c-6.32,1.84-11.94,6.1-15.77,11.95c-1.42,2.17,0.53,4.43,2.83,4.23
	c9.69-0.82,18.65-4.76,26.08-10.89c8.52,3.79,16.74,8.23,24.66,13.19c-2.43,0.01-4.83,0.22-7.18,0.63
	c-9.78,1.73-17.04,6.28-21.73,9.81c-1.53,1.15-1.01,4.05,0.88,4.52c12.91,3.21,25.78,0.13,36.55-7.47c0.47-0.33,0.73-0.78,0.89-1.26
	c8.29,5.85,16.18,12.32,23.55,19.46c2.1,2.04,5.51-0.83,3.47-3.04c-6.51-7.06-13.61-13.45-21.14-19.24
	c0.28-0.11,0.53-0.28,0.71-0.55c7.23-11.17,0.07-26.7-10.48-32.84c-1.47-0.85-3.82-0.48-4.31,1.43c-1.65,6.43-2.19,12.96-1.36,19.57
	c0.08,0.6,0.16,1.24,0.26,1.9c-5.88-4.3-13.93-8.75-16.5-10.07c0.2-3.5,0.99-8.38-0.3-12.29c-1.05-3.17-2.41-6.16-4.15-9.01
	c-3.69-6.03-8.62-10.94-14.56-14.75c-1.85-1.19-5.11,0.43-4.29,2.87c2.4,7.12,4.9,13.99,8.71,20.33c1.81,3.53,4.29,7.15,6.74,10.21
	c-0.45-0.1-30.07-11.03-30.07-11.04c-0.97-15.97-12.66-22.56-24.16-24.35c-2.09-0.33-3.58,2.25-2.66,4
	c3.74,7.09,8.7,13.29,14.67,18.42c-4.21-0.82-8.44-1.55-12.7-2.12c-4.29-0.57-8.66-1-13.07-1.32C383.77,12.97,364-0.25,351.83,0
	c-2.49,0.05-3.78,2.62-2.29,4.64c6.47,8.75,15.06,16.45,24.42,19.9c-12.36-0.47-31.67,0.48-40.7,0.99
	c-6.9-12.87-24.76-15.75-35.41-9.8c-1.41,0.79-2.3,3.11-0.86,4.39c3.94,3.51,8.9,7.32,14.17,9.78c-6.69,1.43-18.49,3.82-20.76,4.57
	c-1.12-4.83-9.15-8.74-13.45-9.53c-6.78-1.26-13.58-0.03-19.56,3.33c-1.94,1.09-1.9,3.4-0.31,4.75c5.48,4.68,12.14,7.13,18.97,7.35
	c-6.58,2.58-15.64,6.73-21.76,9.94c-0.97-1.67-3.43-2.31-5.83-2.31c-11.4,0-14.88,4-21.61,13.16
	C225.77,62.6,226.6,64.66,228.19,65.25z"/>
<path d="M498.56,361.09c-8.13-2.92-22.4-2.19-26.57,7c-0.35,0.77-0.6,1.63-0.72,2.51c-7.76,2.92-15.38,5.91-23.02,8.77
	c3.88-6.3,5.44-13.9,4.25-21.58c-0.27-1.74-2.34-2.5-3.8-1.8c-7.09,3.42-14.64,8.18-16.92,16.23c-1.22,4.29-0.67,8.85,1.52,12.49
	c-8.36,2.82-16.85,5.29-25.64,7.2c5.35-5.12,8.82-12.11,9.55-19.66c0.13-1.35-1.15-2.99-2.6-2.9
	c-13.56,0.79-24.42,12.47-24.58,25.63c-9.32,1.27-18.7,1.99-28.09,2.15c6.39-5.15,10.4-12.72,12.15-21.29
	c0.31-1.53-0.46-3.59-2.39-3.52c-13.33,0.48-23.9,11.72-24.37,24.57c-3.73-0.18-7.47-0.44-11.19-0.82
	c-5.03-0.51-10.02-1.24-14.97-2.12c1.7-1.02,3.3-2.15,4.67-3.23c5.23-4.12,8.7-9.43,11.5-15.4c1.02-2.18-1.79-3.96-3.62-3.11
	c-1.97,0.91-6.77,3.53-10.75,6.7c-4.53,3.67-8.42,8.09-11.51,13.07c-7.24-1.67-14.36-3.76-21.34-6.2c6.3-1.9,11.88-6.22,15.65-12.11
	c1.4-2.18-0.58-4.42-2.87-4.2c-9.68,0.92-18.6,4.94-25.97,11.15c-8.56-3.7-16.82-8.07-24.79-12.94c2.43-0.03,4.83-0.27,7.18-0.71
	c9.76-1.83,16.98-6.45,21.63-10.02c1.52-1.17,0.97-4.06-0.93-4.51c-12.94-3.08-25.78,0.13-36.47,7.83
	c-0.46,0.33-0.73,0.78-0.87,1.27c-8.34-5.77-16.31-12.15-23.74-19.22c-2.12-2.02-5.5,0.89-3.44,3.07
	c6.58,6.99,13.75,13.31,21.33,19.03c-0.28,0.11-0.53,0.28-0.71,0.56c-7.12,11.24,0.2,26.7,10.81,32.73
	c1.47,0.84,3.82,0.44,4.29-1.47c1.59-6.45,2.06-12.98,1.16-19.58c-0.08-0.6-0.17-1.24-0.28-1.89c5.92,4.25,14.02,8.61,16.61,9.9
	c-0.17,3.5-0.91,8.39,0.42,12.28c1.08,3.16,2.47,6.14,4.24,8.97c3.75,5.99,8.73,10.85,14.7,14.6c1.86,1.17,5.11-0.48,4.26-2.91
	c-2.47-7.1-5.04-13.94-8.92-20.24c-1.84-3.51-4.36-7.11-6.84-10.14c0.45,0.1,30.18,10.72,30.18,10.74
	c1.13,15.96,12.89,22.43,24.4,24.1c2.1,0.3,3.55-2.29,2.62-4.02c-3.81-7.05-8.83-13.2-14.85-18.27c4.22,0.78,8.46,1.47,12.72,1.99
	c4.29,0.53,8.67,0.91,13.08,1.19c-1.2,12,18.7,25.02,30.87,24.65c2.49-0.08,3.76-2.66,2.24-4.66c-6.56-8.68-15.23-16.3-24.62-19.65
	c12.37,0.34,31.66-0.8,40.69-1.4c7.03,12.8,24.92,15.5,35.51,9.44c1.41-0.8,2.27-3.13,0.82-4.4c-3.98-3.47-8.98-7.23-14.26-9.64
	c6.67-1.5,18.45-4.01,20.71-4.77c1.16,4.82,9.24,8.65,13.54,9.4c6.79,1.19,13.58-0.11,19.53-3.53c1.93-1.11,1.86-3.42,0.26-4.76
	c-5.53-4.63-12.22-7-19.04-7.16c6.56-2.64,15.57-6.89,21.66-10.15c0.99,1.66,3.45,2.28,5.86,2.26c11.4-0.11,14.84-4.15,21.47-13.38
	C501.01,363.71,500.15,361.66,498.56,361.09z"/>
</svg>
